<?xml version="1.0" encoding="utf-8"?>
<!-- Generator: Adobe Illustrator 18.0.0, SVG Export Plug-In . SVG Version: 6.00 Build 0)  -->
<!DOCTYPE svg PUBLIC "-//W3C//DTD SVG 1.1//EN" "http://www.w3.org/Graphics/SVG/1.1/DTD/svg11.dtd">
<svg version="1.1" id="Layer_1" xmlns="http://www.w3.org/2000/svg" xmlns:xlink="http://www.w3.org/1999/xlink" x="0px" y="0px"
	 viewBox="0 0 1400 980" enable-background="new 0 0 1400 980" xml:space="preserve">
<g>
	<rect fill="#FFEEB3" width="1400" height="980"/>
	<g opacity="0.1">
		<path fill="#754C29" d="M448.5,460.8h165.2c3,11,13.1,19.1,25.1,19.1s22.1-8.1,25.1-19.1h165.2c4.5,0,8.1-3.6,8.1-8.1V209.5
			c0-4.5-3.6-8.1-8.1-8.1h-9.5l-6.6-10.2h0c-19.1-5.6-38.8-8.7-58.4-9.3c-34.6-1.1-69.3,5.5-101.5,19.5h-14.4h-14.4
			c-50.4-22-106.9-25.6-159.8-10.2v0v0l-6.6,10.2h-9.5c-4.5,0-8.1,3.6-8.1,8.1v243.2C440.3,457.2,444,460.8,448.5,460.8z"/>
		<path fill="#754C29" d="M282.5,171.5v-18.1c-61.1-9-130,6.6-182.9,29.5c-5.7,2.5-11.2,5-16.6,7.7l-7.8,3.4v282.6h0l0,0l33.5,34.3
			l0,0l0,0l0,0v0l7.8-3.4c6.4-2.8,12.9-5.5,19.5-7.9c57.3-21.4,119.2-28,179.9-19.1V197.8c-4-0.6-8.1-1.1-12.2-1.6L282.5,171.5z"/>
		<path fill="#754C29" d="M103.4,559.4c-15.6,0-28.2,12.6-28.2,28.2v287.6c0,0.5,0,1,0,1.5c0.8,18,15.6,32.4,33.8,32.4H316v-5.6
			v-5.6v-45.1v-11.3v-282H106.3H103.4z M103.1,841.9C103.1,841.9,103.1,841.9,103.1,841.9C103.1,841.9,103.1,841.9,103.1,841.9z
			 M101.5,842.2C101.5,842.2,101.5,842.2,101.5,842.2C101.5,842.2,101.5,842.2,101.5,842.2z M100,842.6
			C100,842.6,100,842.6,100,842.6C100,842.6,100,842.6,100,842.6z M84.4,852.1c0,0.1-0.1,0.1-0.1,0.2
			C84.3,852.2,84.3,852.1,84.4,852.1z M75.3,875.2c0-0.6,0-1.1,0-1.7C75.3,874,75.3,874.6,75.3,875.2z M83.4,853.1
			c-0.1,0.1-0.2,0.2-0.3,0.3C83.3,853.3,83.3,853.2,83.4,853.1z M82.5,854.3c-0.1,0.1-0.2,0.3-0.3,0.4
			C82.3,854.5,82.4,854.4,82.5,854.3z M81.6,855.5c-0.1,0.2-0.2,0.3-0.3,0.5C81.4,855.8,81.5,855.7,81.6,855.5z M80.7,856.8
			c-0.1,0.2-0.2,0.4-0.3,0.5C80.5,857.1,80.6,857,80.7,856.8z M79.9,858.1c-0.1,0.2-0.2,0.4-0.3,0.6
			C79.7,858.5,79.8,858.3,79.9,858.1z M79.1,859.5c-0.1,0.2-0.2,0.4-0.3,0.6C78.9,859.9,79,859.7,79.1,859.5z M78.4,860.9
			c-0.1,0.2-0.2,0.5-0.3,0.7C78.2,861.3,78.3,861.1,78.4,860.9z M77.8,862.3c-0.1,0.2-0.2,0.5-0.3,0.7
			C77.6,862.8,77.7,862.6,77.8,862.3z M77.2,863.8c-0.1,0.3-0.2,0.5-0.3,0.8C77,864.3,77.1,864.1,77.2,863.8z M76.7,865.4
			c-0.1,0.3-0.2,0.5-0.2,0.8C76.5,865.9,76.6,865.6,76.7,865.4z M76.3,866.9c-0.1,0.3-0.1,0.6-0.2,0.9
			C76.1,867.5,76.2,867.2,76.3,866.9z M75.9,868.5c-0.1,0.3-0.1,0.6-0.2,0.9C75.8,869.1,75.9,868.8,75.9,868.5z M75.6,870.1
			c0,0.3-0.1,0.7-0.1,1C75.5,870.8,75.6,870.5,75.6,870.1z M75.4,871.8c0,0.4-0.1,0.7-0.1,1.1C75.4,872.5,75.4,872.2,75.4,871.8z
			 M107.6,841.4c0.5,0,1,0,1.4,0C108.6,841.3,108.1,841.4,107.6,841.4z M106.3,841.5C106.3,841.5,106.3,841.5,106.3,841.5
			C106.3,841.5,106.3,841.5,106.3,841.5C106.3,841.5,106.3,841.5,106.3,841.5z M104.6,841.6C104.7,841.6,104.7,841.6,104.6,841.6
			C104.7,841.6,104.7,841.6,104.6,841.6z"/>
		<path fill="#754C29" d="M1387.7,687.6l0-14l-192.5-111.2l-252.9,147l0,14l0,0v57.3l0,14l192.5,111.2l252.9-147l0-14l-13.4-7.7l0,0
			l0.1-41.9l-36.2,21l0,0L1387.7,687.6z M967.4,737.9l-6.4-3.7l6.6,3.8L967.4,737.9z"/>
		<polygon fill="#754C29" points="1374,360.2 1374,340.3 1374,337.3 1387.8,329.3 1387.7,319.5 1387.7,319.5 1134.8,172.5 
			961.9,272.4 942.3,283.7 942.3,283.7 942.3,332.4 942.3,332.4 942.3,332.4 942.3,342.2 1195.2,489.2 1387.8,378 1387.7,368.2 		
			"/>
		<polygon fill="#754C29" points="825,569.7 805.1,576.7 805.1,567.5 783.4,576.1 783.4,564.9 763,574.5 763,563.3 641.3,630.6 
			638.8,630.6 636.3,630.6 514.5,563.3 514.5,574.5 494.2,564.9 494.2,576.1 472.4,567.5 472.4,576.7 452.6,569.7 452.6,581.3 
			434.8,576.1 434.8,835.7 616.1,889 616.1,905.1 661.5,905.1 661.5,889 842.8,835.7 842.8,576.1 825,581.3 		"/>
	</g>
	<g>
		<g>
			<path fill="#F27047" d="M797.6,161.5h-9.5l4,6.3v239.2H607.3H422.4V167.7l4-6.3H417c-4.5,0-8.1,3.6-8.1,8.1v243.2
				c0,4.5,3.6,8.1,8.1,8.1h165.2c3,11,13.1,19.1,25.1,19.1l0,0c12,0,22.1-8.1,25.1-19.1h165.2c4.5,0,8.1-3.6,8.1-8.1V169.6
				C805.7,165.1,802.1,161.5,797.6,161.5z"/>
			<path fill="#F27047" d="M607.3,168.3L607.3,168.3l5.5-2.7c2.9-1.4,5.9-2.8,8.9-4.1h-14.4h-14.4c3,1.3,6,2.7,8.9,4.1L607.3,168.3z
				"/>
			<path fill="#CCCCCC" d="M422.4,406.9h184.9h184.9V167.7l-4-6.3l-6.6-10.2h0v0v231.5v0v0c-56.1-16.4-116.2-11.3-168.8,14.3
				l-5.5,2.7V168.3l0,0l0,0v231.5l-5.5-2.7c-52.5-25.6-112.7-30.7-168.8-14.3v0V151.3l-6.6,10.2l-4,6.3V406.9z"/>
			<path fill="#F2F2F2" d="M433,382.8L433,382.8c56.1-16.4,116.2-11.3,168.8,14.3l5.5,2.7V168.3l0,0l-5.5-2.7
				c-2.9-1.4-5.9-2.8-8.9-4.1c-50.4-22-106.9-25.6-159.8-10.2v0v0V382.8z"/>
			<path fill="#E6E6E6" d="M607.3,168.3v231.5l5.5-2.7c0-120.3,57.3-234,110.4-255.1c-34.6-1.1-69.3,5.5-101.5,19.5
				c-3,1.3-6,2.7-8.9,4.1L607.3,168.3z"/>
			
				<line fill="none" stroke="#F2F2F2" stroke-width="0" stroke-linecap="round" stroke-linejoin="round" x1="781.5" y1="382.8" x2="781.5" y2="382.8"/>
			<path fill="#F2F2F2" d="M612.8,397.1c52.5-25.6,112.7-30.7,168.8-14.3V151.3v0l0,0c-19.1-5.6-38.8-8.7-58.4-9.3
				C670.1,163.1,612.8,276.8,612.8,397.1z"/>
		</g>
		<g>
			<g>
				<path fill="#455A66" d="M51.5,150.7l-7.8,3.4v282.6l7.8-3.4c5.5-2.4,11-4.7,16.6-6.8V143C62.4,145.5,56.8,148,51.5,150.7z"/>
				<path fill="#46B6AC" d="M251,113.5c-61.1-9-130,6.6-182.9,29.5v283.5c58.1-22.3,121.1-29.3,182.9-20.2l0,0V113.5L251,113.5z"/>
			</g>
			<polygon fill="#55707A" points="43.7,154.1 77.3,188.4 77.3,471.1 43.7,436.7 			"/>
			<g>
				<path fill="#E6E6E6" d="M251,131.6l-8.8-10.2c-49.8-7.4-150.7,17.3-192,39.3l27.1,27.8l8-1.1l-19.7-19.9
					C119.4,143.1,184.9,127.8,251,131.6z"/>
				<path fill="#F2F2F2" d="M251,131.6c-66-3.8-131.6,11.4-185.4,35.8l19.7,19.9L276,160.7L251,131.6z"/>
			</g>
			<g>
				<path fill="#5F808E" d="M85.1,185l-7.8,3.4v282.6l7.8-3.4c6.4-2.8,12.9-5.5,19.5-7.9V177.1C98,179.5,91.5,182.2,85.1,185z"/>
				<path fill="#73C7C0" d="M284.5,158c-60.7-8.9-122.6-2.3-179.9,19.1v282.6c57.3-21.4,119.2-28,179.9-19.1l0,0V158L284.5,158z"/>
			</g>
		</g>
		<g>
			<g>
				<path fill="#C13C38" d="M77.5,812.7c-12.4,0-22.5,10.1-22.5,22.5s10.1,22.5,22.5,22.5h206.9v-45.1H264H77.5z"/>
				<path fill="#DB524B" d="M77.5,801.5c-18.6,0-33.8,15.2-33.8,33.8c0,0.5,0,1,0,1.5c0.8,18,15.6,32.4,33.8,32.4h206.9v-5.6v-5.6
					H77.5c-12.4,0-22.5-10.1-22.5-22.5s10.1-22.5,22.5-22.5H264h20.5v-11.3H77.5z"/>
			</g>
			<g>
				<path fill="#D1D3D4" d="M77.5,812.7c-12.4,0-22.5,10.1-22.5,22.5c0,11.5,8.6,21,19.7,22.3c21.2-32.8,138-41.8,189.2-41.8v-3.1
					H77.5z"/>
				<path fill="#F2F2F2" d="M74.8,857.6c0.9,0.1,1.8,0.2,2.8,0.2H264v-42C212.8,815.8,95.9,824.8,74.8,857.6z"/>
			</g>
			<path fill="#C13C38" d="M71.9,519.5c-15.6,0-28.2,12.6-28.2,28.2v287.6c0,0.5,0,1,0,1.5c0-0.5,0-1,0-1.5
				c0-17.7,13.7-32.3,31-33.7V519.5H71.9z"/>
			<g>
				<path fill="#EF6B60" d="M89.3,801.5h195.2v-282C195.7,531.8,89.3,646.1,89.3,801.5z"/>
				<path fill="#E5605A" d="M74.8,801.6c0.9-0.1,1.9-0.1,2.8-0.1h11.7c0.1-155.3,106.4-269.7,195.2-282H74.8V801.6z"/>
			</g>
		</g>
		<g>
			<g>
				<g enable-background="new    ">
					<g>
						<polygon fill="#86D3F5" points="1356.2,705.1 1103.3,852 910.8,740.9 1163.7,593.9 						"/>
					</g>
					<g>
						<polygon fill="#5DC2EE" points="1356.2,705.1 1356.2,719.1 1103.3,866.1 1103.3,852 						"/>
					</g>
					<g>
						<polygon fill="#36A6DD" points="1103.3,852 1103.3,866.1 910.8,754.9 910.8,740.9 						"/>
					</g>
				</g>
			</g>
			<g>
				<g enable-background="new    ">
					<g>
						<polygon fill="#86D3F5" points="1356.2,633.7 1103.3,780.7 910.8,669.5 1163.7,522.5 						"/>
					</g>
					<g>
						<polygon fill="#5DC2EE" points="1356.2,633.7 1356.2,647.7 1103.3,794.7 1103.3,780.7 						"/>
					</g>
					<g>
						<polygon fill="#36A6DD" points="1103.3,780.7 1103.3,794.7 910.8,683.5 910.8,669.5 						"/>
					</g>
				</g>
			</g>
			<polygon fill="#36A6DD" points="910.8,669.5 910.8,754.9 922.8,761.8 922.8,676.4 			"/>
			<polygon fill="#D1D3D4" points="935.9,740.9 1103.3,837.7 1103.3,794.7 935.9,698 			"/>
			<polygon fill="#F2F2F2" points="1342.9,655.4 1103.3,794.7 1103.3,837.7 1342.9,697.3 			"/>
			<polygon fill="#2A95BF" points="922.8,747.8 935.9,740.9 935.9,698 922.8,690.5 			"/>
			<g>
				<polygon fill="#F8C22C" points="1268.9,629 1230,651.6 1115,585.2 1153.9,562.6 				"/>
				<polygon fill="#FFEEB3" points="1121.9,585.2 1153.9,566.6 1262,629 1230,647.6 				"/>
			</g>
		</g>
		<g>
			<g>
				<polygon fill="#FCB451" points="910.8,292.5 1163.7,439.5 1356.2,328.3 1103.3,181.4 				"/>
			</g>
			<g>
				<polygon fill="#F79820" points="1163.7,439.5 1163.7,449.3 1356.3,338.2 1356.2,328.3 				"/>
			</g>
			<g>
				<polygon fill="#55707A" points="910.8,243.8 910.8,302.4 1163.7,449.3 1163.7,390.8 				"/>
			</g>
			<g>
				<polygon fill="#F79820" points="1163.7,390.8 1163.7,400.6 1356.3,289.4 1356.2,279.6 				"/>
			</g>
			<g>
				<polygon fill="#627F8D" points="910.8,243.8 1163.7,390.8 1183.3,379.5 930.4,232.5 				"/>
				<polygon fill="#FCB451" points="1103.3,132.6 930.4,232.5 1183.3,379.5 1356.2,279.6 				"/>
			</g>
			<polygon fill="#455A66" points="1163.7,390.8 1163.7,449.3 1174.1,443.3 1174.1,384.7 			"/>
			<polygon fill="#455A66" points="1183.3,379.5 1183.3,389.3 1163.7,400.6 1163.7,390.8 			"/>
			<polygon fill="#455A66" points="1163.7,449.3 1185.1,437 1185.1,427.2 1163.7,439.5 			"/>
			<g>
				<path fill="#E6E6E6" d="M1342.5,300.5v-3.1l-168.1,97.1v29.1l19.1-11C1215.8,381.4,1265.2,346.1,1342.5,300.5z"/>
				<path fill="#F2F2F2" d="M1342.5,300.5c-77.3,45.7-126.7,81-149,112.1l149-85.9V300.5z"/>
			</g>
		</g>
		<g>
			<polygon fill="#E6E7E8" points="483,544.3 483,523.4 604.7,590.7 599.8,590.7 			"/>
			<polygon fill="#F1F2F2" points="462.6,544.5 462.6,525.1 603.3,590.7 584.6,590.7 			"/>
			<polygon fill="#E6E7E8" points="440.9,547.4 440.9,527.6 599.8,590.7 584.6,590.7 			"/>
			<rect x="584.6" y="595.5" fill="#9280AD" width="45.4" height="269.7"/>
			<polygon fill="#B09DCA" points="403.3,795.9 584.6,849.1 584.6,589.5 403.3,536.2 			"/>
			<polygon fill="#F1F2F2" points="421.1,541.4 421.1,529.9 594.6,590.7 584.6,590.7 			"/>
			<rect x="584.6" y="590.7" fill="#CCCCCC" width="22.7" height="4.8"/>
			<polygon fill="#E6E7E8" points="731.5,544.3 731.5,523.4 609.8,590.7 614.8,590.7 			"/>
			<polygon fill="#F1F2F2" points="751.9,544.5 751.9,525.1 611.2,590.7 630,590.7 			"/>
			<polygon fill="#E6E7E8" points="773.6,547.4 773.6,527.6 614.8,590.7 630,590.7 			"/>
			<polygon fill="#B09DCA" points="811.3,795.9 630,849.1 630,589.5 811.3,536.2 			"/>
			<polygon fill="#F1F2F2" points="793.5,541.4 793.5,529.9 620,590.7 630,590.7 			"/>
			<rect x="607.3" y="590.7" fill="#CCCCCC" width="22.7" height="4.8"/>
		</g>
	</g>
</g>
</svg>
